<?xml version="1.0" standalone="no"?>
<!DOCTYPE svg PUBLIC "-//W3C//DTD SVG 20010904//EN"
 "http://www.w3.org/TR/2001/REC-SVG-20010904/DTD/svg10.dtd">
<svg version="1.0" xmlns="http://www.w3.org/2000/svg"
 width="335.000000pt" height="335.000000pt" viewBox="0 0 335.000000 335.000000"
 preserveAspectRatio="xMidYMid meet">
<metadata>
Created by potrace 1.14, written by Peter Selinger 2001-2017
</metadata>
<g transform="translate(0.000000,335.000000) scale(0.100000,-0.100000)"
fill="#000000" stroke="none">
<path d="M33 2884 c-3 -8 -1 -20 5 -26 16 -16 42 -2 42 22 0 24 -38 28 -47 4z"/>
<path d="M1655 2858 c-48 -7 -108 -26 -172 -54 -17 -8 -34 -14 -38 -14 -4 0
-37 -22 -74 -49 -77 -57 -177 -167 -186 -204 -4 -15 -13 -31 -21 -38 -8 -6
-14 -20 -14 -30 0 -30 -21 -33 -44 -6 -11 13 -46 43 -77 65 -30 22 -82 68
-115 102 -93 99 -114 117 -154 135 -33 15 -42 15 -66 4 -57 -28 -70 -64 -68
-185 1 -60 4 -119 8 -131 3 -13 9 -33 13 -45 8 -29 12 -96 6 -117 -3 -13 -15
-15 -60 -13 -62 4 -133 -12 -162 -37 -11 -10 -32 -26 -47 -37 -125 -89 -188
-216 -142 -286 16 -24 94 -68 122 -68 24 0 20 -8 -24 -52 -57 -54 -67 -84 -39
-114 56 -60 260 -108 351 -83 l28 8 -19 -37 c-109 -217 -134 -538 -61 -777 69
-228 205 -427 385 -564 22 -17 46 -36 53 -41 30 -26 204 -110 277 -134 225
-75 494 -71 715 11 557 207 854 809 674 1368 -28 87 -85 207 -128 269 -23 35
-33 74 -25 101 1 6 3 28 4 50 1 22 7 50 13 62 19 35 14 56 -18 82 -16 13 -28
27 -25 31 3 5 -6 21 -20 36 -23 25 -24 28 -7 40 9 7 14 14 10 14 -4 0 -1 15 7
34 8 18 12 36 9 39 -3 2 -7 17 -10 33 -5 29 -27 68 -51 92 -7 7 -14 29 -14 48
-3 66 -26 130 -56 149 -12 9 -23 22 -23 30 0 8 -4 15 -9 15 -5 0 -14 13 -19
30 -6 16 -29 42 -52 57 -23 15 -69 52 -103 81 -34 28 -70 52 -80 52 -10 0 -27
4 -37 10 -10 5 -32 11 -50 12 -20 2 -38 11 -47 24 -8 12 -24 25 -36 29 -30 10
-221 12 -282 3z"/>
<path d="M300 2490 c-18 -43 -15 -81 6 -97 17 -12 21 -11 37 8 19 24 22 70 7
100 -15 28 -36 23 -50 -11z"/>
<path d="M407 2470 c-4 -17 -1 -21 16 -18 25 3 30 31 6 36 -10 2 -19 -6 -22
-18z"/>
<path d="M3160 2475 c-13 -15 -11 -20 13 -41 44 -37 97 -28 97 17 0 22 -7 27
-56 35 -31 4 -43 2 -54 -11z"/>
<path d="M3243 1985 c-29 -12 -52 -49 -39 -62 13 -13 116 47 116 68 0 13 -40
10 -77 -6z"/>
</g>
</svg>
